<svg width="23" height="23" viewBox="0 0 23 23" fill="none" xmlns="http://www.w3.org/2000/svg">
<path fill-rule="evenodd" clip-rule="evenodd" d="M6.41179 6.86308H2.875C2.50907 6.86308 2.16152 7.02342 1.92403 7.30181C1.68654 7.5802 1.58296 7.94868 1.64062 8.31004L3.55728 20.322C3.65408 20.9286 4.17735 21.375 4.79167 21.375H18.2083C18.8227 21.375 19.3459 20.9286 19.4427 20.322L21.3594 8.31004C21.417 7.94868 21.3135 7.5802 21.076 7.30181C20.8385 7.02342 20.4909 6.86308 20.125 6.86308H16.581C16.514 5.96653 16.3012 4.99466 15.8375 4.12456C15.0749 2.69357 13.6671 1.625 11.5 1.625C10.4412 1.625 9.52651 1.86916 8.76816 2.33567C8.01152 2.80113 7.48121 3.44439 7.12135 4.13444C6.66737 5.00496 6.4702 5.97439 6.41179 6.86308ZM8.91929 6.86308H14.0712C14.0115 6.3011 13.8717 5.7515 13.6312 5.30032C13.2758 4.63334 12.6871 4.125 11.5 4.125C10.8338 4.125 10.3869 4.27507 10.0781 4.46503C9.76756 4.65604 9.52522 4.9315 9.33803 5.29044C9.10303 5.74105 8.97181 6.29334 8.91929 6.86308ZM4.34027 9.36308L5.85803 18.875H17.142L18.6597 9.36308H4.34027Z" fill="#BABABA"/>
</svg>
