<svg width="24" height="24" viewBox="0 0 24 24" fill="none" xmlns="http://www.w3.org/2000/svg">
<g id="Component / Icon / favorite.default-24">
<path id="Vector 15 (Stroke)" fill-rule="evenodd" clip-rule="evenodd" d="M19.03 6.291C17.5144 4.33757 14.4722 4.66518 13.4073 6.8965C12.8483 8.06765 11.1812 8.06765 10.6223 6.8965C9.55733 4.66518 6.51513 4.33757 4.99954 6.29101L4.68944 6.69069C3.35718 8.40782 3.54954 10.8565 5.13358 12.3446L12.0148 18.8087L18.896 12.3446C20.48 10.8565 20.6724 8.40782 19.3401 6.69069L19.03 6.291ZM12.0148 5.30673C13.9965 2.39831 18.359 2.15563 20.614 5.06205L20.9241 5.46174C22.8902 7.99589 22.6063 11.6097 20.2686 13.8058L13.2992 20.3528C13.2927 20.359 13.286 20.3652 13.2792 20.3716C13.1774 20.4673 13.0547 20.5827 12.9368 20.6735C12.7977 20.7807 12.5887 20.916 12.3043 20.9719C12.1131 21.0094 11.9164 21.0094 11.7252 20.9719C11.4408 20.916 11.2319 20.7807 11.0927 20.6735C10.9749 20.5827 10.8522 20.4674 10.7504 20.3717C10.7436 20.3653 10.7369 20.359 10.7303 20.3528L3.76093 13.8058C1.42319 11.6097 1.13931 7.99589 3.10546 5.46174L3.41556 5.06206C5.67054 2.15564 10.0331 2.39831 12.0148 5.30673Z" fill="#E6E6E7"/>
</g>
</svg>
