<svg width="20" height="20" viewBox="0 0 20 20" fill="none" xmlns="http://www.w3.org/2000/svg">
<path d="M10.6231 1.70155C10.4492 1.55906 10.2283 1.48082 10 1.48082C9.77168 1.48082 9.55082 1.55906 9.37692 1.70155L1.87692 7.84153C1.77073 7.92854 1.68546 8.03675 1.62702 8.15866C1.56857 8.28057 1.53836 8.41326 1.53846 8.54754V18.1479C1.53846 18.2462 1.57898 18.3404 1.65111 18.4099C1.72324 18.4793 1.82107 18.5183 1.92308 18.5183H5.76923C5.87124 18.5183 5.96907 18.4793 6.0412 18.4099C6.11332 18.3404 6.15385 18.2462 6.15385 18.1479V12.9621C6.15385 12.4709 6.35646 11.9999 6.7171 11.6525C7.07775 11.3052 7.56689 11.1101 8.07692 11.1101H11.5385C11.791 11.1101 12.0411 11.158 12.2744 11.251C12.5077 11.3441 12.7197 11.4805 12.8983 11.6525C13.0769 11.8245 13.2185 12.0287 13.3152 12.2534C13.4118 12.4781 13.4615 12.7189 13.4615 12.9621V18.1479C13.4615 18.2462 13.5021 18.3404 13.5742 18.4099C13.6463 18.4793 13.7441 18.5183 13.8462 18.5183H18.0769C18.1789 18.5183 18.2768 18.4793 18.3489 18.4099C18.421 18.3404 18.4615 18.2462 18.4615 18.1479V8.5468C18.4615 8.41265 18.4313 8.2801 18.3728 8.15833C18.3144 8.03655 18.2292 7.92846 18.1231 7.84153L10.6231 1.70229V1.70155ZM8.38077 0.573266C8.83279 0.203195 9.40673 0 10 0C10.5933 0 11.1672 0.203195 11.6192 0.573266L19.1192 6.71251C19.3953 6.93852 19.617 7.21962 19.7691 7.53635C19.9212 7.85307 20 8.19785 20 8.5468V18.1479C20 18.6391 19.7974 19.1102 19.4367 19.4575C19.0761 19.8049 18.587 20 18.0769 20H13.8462C13.3361 20 12.847 19.8049 12.4863 19.4575C12.1257 19.1102 11.9231 18.6391 11.9231 18.1479V12.9621C11.9231 12.8639 11.8826 12.7697 11.8104 12.7002C11.7383 12.6307 11.6405 12.5917 11.5385 12.5917H8.07692C7.97492 12.5917 7.87709 12.6307 7.80496 12.7002C7.73283 12.7697 7.69231 12.8639 7.69231 12.9621V18.1479C7.69231 18.6391 7.4897 19.1102 7.12905 19.4575C6.7684 19.8049 6.27926 20 5.76923 20H1.92308C1.41305 20 0.923903 19.8049 0.563256 19.4575C0.202609 19.1102 0 18.6391 0 18.1479V8.5468C2.02392e-05 8.19785 0.0787988 7.85307 0.23088 7.53635C0.382961 7.21962 0.60471 6.93852 0.880769 6.71251L8.38077 0.573266V0.573266Z" fill="#8E8E93"/>
</svg>
