<svg width="22" height="22" viewBox="0 0 22 22" fill="none" xmlns="http://www.w3.org/2000/svg">
<g id="Group">
<g id="Group_2">
<path id="Vector" d="M20.8779 20.2887L14.7925 14.2033C16.0565 12.7999 16.8334 10.9496 16.8334 8.91664C16.8333 4.55145 13.2819 1 8.91668 1C4.55145 1 1 4.55145 1 8.91668C1 13.2819 4.55145 16.8334 8.91668 16.8334C10.9496 16.8334 12.7999 16.0565 14.2034 14.7925L20.2887 20.8779C20.3701 20.9593 20.4768 21 20.5834 21C20.69 21 20.7966 20.9593 20.878 20.8779C21.0407 20.7152 21.0407 20.4515 20.8779 20.2887ZM8.91668 16C5.01125 16 1.83336 12.8225 1.83336 8.91668C1.83336 5.01086 5.01125 1.83332 8.91668 1.83332C12.8221 1.83332 16 5.01082 16 8.91668C16 12.8225 12.8221 16 8.91668 16Z" fill="#292929" stroke="#292929" stroke-width="0.5"/>
</g>
</g>
</svg>
