<svg width="24" height="24" viewBox="0 0 24 24" fill="none" xmlns="http://www.w3.org/2000/svg">
<g id="Component / Icon / favorite.active-24">
<path id="Union" fill-rule="evenodd" clip-rule="evenodd" d="M20.614 5.06205C18.359 2.15563 13.9965 2.39831 12.0148 5.30673C10.0331 2.39831 5.67054 2.15564 3.41556 5.06206L3.10546 5.46174C1.13931 7.99589 1.42319 11.6097 3.76093 13.8058L10.7303 20.3528L10.7504 20.3717L10.7504 20.3717C10.8522 20.4674 10.9749 20.5827 11.0927 20.6735C11.2319 20.7807 11.4408 20.916 11.7252 20.9719C11.9164 21.0094 12.1131 21.0094 12.3043 20.9719C12.5887 20.916 12.7977 20.7807 12.9368 20.6735C13.0546 20.5827 13.1773 20.4674 13.2791 20.3717L13.2792 20.3716L13.2992 20.3528L20.2686 13.8058C22.6063 11.6097 22.8902 7.99589 20.9241 5.46174L20.614 5.06205Z" fill="#ED093F"/>
</g>
</svg>
